<svg width="221" height="19" viewBox="0 0 221 19" fill="none" xmlns="http://www.w3.org/2000/svg">
<path d="M5.45788 17.7795L0.685154 0.324995H2.83288L6.48061 14.5409H6.65106L10.367 0.324995H12.7533L16.4692 14.5409H16.6397L20.2874 0.324995H22.4352L17.6624 17.7795H15.4806L11.6283 3.87045H11.492L7.6397 17.7795H5.45788ZM29.5458 18.0523C28.2845 18.0523 27.1964 17.7739 26.2816 17.217C25.3725 16.6545 24.6708 15.8705 24.1765 14.8648C23.6879 13.8534 23.4436 12.6773 23.4436 11.3364C23.4436 9.99545 23.6879 8.81363 24.1765 7.7909C24.6708 6.7625 25.3583 5.96136 26.239 5.3875C27.1254 4.80795 28.1595 4.51818 29.3413 4.51818C30.0231 4.51818 30.6964 4.63181 31.3612 4.85909C32.026 5.08636 32.6311 5.45568 33.1765 5.96704C33.722 6.47272 34.1566 7.14318 34.4805 7.9784C34.8044 8.81363 34.9663 9.84204 34.9663 11.0636V11.9159H24.8754V10.1773H32.9208C32.9208 9.43863 32.7731 8.77954 32.4777 8.2C32.1879 7.62045 31.7731 7.16306 31.2333 6.82784C30.6992 6.49261 30.0686 6.325 29.3413 6.325C28.5402 6.325 27.847 6.52386 27.2617 6.92159C26.6822 7.31363 26.2362 7.825 25.9237 8.45568C25.6112 9.08636 25.4549 9.7625 25.4549 10.4841V11.6432C25.4549 12.6318 25.6254 13.4699 25.9663 14.1574C26.3129 14.8392 26.793 15.3591 27.4066 15.717C28.0203 16.0693 28.7333 16.2455 29.5458 16.2455C30.0742 16.2455 30.5515 16.1716 30.9777 16.0239C31.4095 15.8705 31.7816 15.6432 32.0941 15.342C32.4066 15.0352 32.6481 14.6545 32.8186 14.2L34.7617 14.7455C34.5572 15.4045 34.2135 15.9841 33.7305 16.4841C33.2475 16.9784 32.651 17.3648 31.9407 17.6432C31.2305 17.9159 30.4322 18.0523 29.5458 18.0523ZM40.5173 0.324995V17.7795H38.5059V0.324995H40.5173ZM49.9994 18.0523C48.7722 18.0523 47.7153 17.7625 46.829 17.183C45.9426 16.6034 45.2608 15.8051 44.7835 14.7881C44.3063 13.771 44.0676 12.6091 44.0676 11.3023C44.0676 9.97272 44.3119 8.79943 44.8006 7.78238C45.2949 6.75965 45.9824 5.96136 46.8631 5.3875C47.7494 4.80795 48.7835 4.51818 49.9653 4.51818C50.8858 4.51818 51.7153 4.68863 52.454 5.02954C53.1926 5.37045 53.7977 5.84772 54.2693 6.46136C54.7409 7.075 55.0335 7.7909 55.1472 8.60909H53.1358C52.9824 8.0125 52.6415 7.48409 52.1131 7.02386C51.5903 6.55795 50.8858 6.325 49.9994 6.325C49.2153 6.325 48.5278 6.52954 47.9369 6.93863C47.3517 7.34204 46.8943 7.91306 46.5648 8.6517C46.2409 9.38465 46.079 10.2454 46.079 11.2341C46.079 12.2455 46.2381 13.1261 46.5563 13.8761C46.8801 14.6261 47.3347 15.2085 47.9199 15.6233C48.5108 16.0381 49.204 16.2455 49.9994 16.2455C50.5222 16.2455 50.9966 16.1545 51.4227 15.9727C51.8489 15.7909 52.2097 15.5295 52.5051 15.1886C52.8006 14.8477 53.0108 14.4386 53.1358 13.9614H55.1472C55.0335 14.7341 54.7523 15.4301 54.3034 16.0494C53.8602 16.6631 53.2722 17.1517 52.5392 17.5153C51.8119 17.8733 50.9653 18.0523 49.9994 18.0523ZM63.8857 18.0523C62.7039 18.0523 61.6669 17.771 60.7749 17.2085C59.8885 16.646 59.1953 15.8591 58.6953 14.8477C58.201 13.8364 57.9539 12.6545 57.9539 11.3023C57.9539 9.93863 58.201 8.74829 58.6953 7.73125C59.1953 6.7142 59.8885 5.92443 60.7749 5.36193C61.6669 4.79943 62.7039 4.51818 63.8857 4.51818C65.0675 4.51818 66.1016 4.79943 66.988 5.36193C67.88 5.92443 68.5732 6.7142 69.0675 7.73125C69.5675 8.74829 69.8175 9.93863 69.8175 11.3023C69.8175 12.6545 69.5675 13.8364 69.0675 14.8477C68.5732 15.8591 67.88 16.646 66.988 17.2085C66.1016 17.771 65.0675 18.0523 63.8857 18.0523ZM63.8857 16.2455C64.7834 16.2455 65.522 16.0153 66.1016 15.5551C66.6811 15.0949 67.1101 14.4898 67.3885 13.7398C67.6669 12.9898 67.8061 12.1773 67.8061 11.3023C67.8061 10.4273 67.6669 9.61193 67.3885 8.85625C67.1101 8.10056 66.6811 7.48977 66.1016 7.02386C65.522 6.55795 64.7834 6.325 63.8857 6.325C62.988 6.325 62.2493 6.55795 61.6698 7.02386C61.0902 7.48977 60.6613 8.10056 60.3828 8.85625C60.1044 9.61193 59.9652 10.4273 59.9652 11.3023C59.9652 12.1773 60.1044 12.9898 60.3828 13.7398C60.6613 14.4898 61.0902 15.0949 61.6698 15.5551C62.2493 16.0153 62.988 16.2455 63.8857 16.2455ZM73.3678 17.7795V4.68863H75.311V6.73409H75.4815C75.7542 6.03522 76.1945 5.49261 76.8025 5.10625C77.4104 4.7142 78.1406 4.51818 78.9928 4.51818C79.8565 4.51818 80.5752 4.7142 81.1491 5.10625C81.7286 5.49261 82.1803 6.03522 82.5042 6.73409H82.6406C82.9758 6.05795 83.4786 5.52102 84.1491 5.12329C84.8195 4.71988 85.6235 4.51818 86.561 4.51818C87.7315 4.51818 88.6888 4.88465 89.4332 5.61761C90.1775 6.34488 90.5496 7.4784 90.5496 9.01818V17.7795H88.5383V9.01818C88.5383 8.05227 88.2741 7.36193 87.7457 6.94715C87.2173 6.53238 86.5951 6.325 85.8792 6.325C84.9587 6.325 84.2457 6.6034 83.74 7.16022C83.2343 7.71136 82.9815 8.41022 82.9815 9.25681V17.7795H80.936V8.81363C80.936 8.06931 80.6945 7.46988 80.2116 7.01534C79.7286 6.55511 79.1065 6.325 78.3451 6.325C77.8224 6.325 77.3337 6.4642 76.8792 6.74261C76.4303 7.02102 76.0667 7.40738 75.7883 7.9017C75.5156 8.39034 75.3792 8.95568 75.3792 9.59772V17.7795H73.3678ZM100.196 18.0523C98.9345 18.0523 97.8464 17.7739 96.9316 17.217C96.0225 16.6545 95.3208 15.8705 94.8265 14.8648C94.3379 13.8534 94.0936 12.6773 94.0936 11.3364C94.0936 9.99545 94.3379 8.81363 94.8265 7.7909C95.3208 6.7625 96.0083 5.96136 96.889 5.3875C97.7754 4.80795 98.8095 4.51818 99.9913 4.51818C100.673 4.51818 101.346 4.63181 102.011 4.85909C102.676 5.08636 103.281 5.45568 103.827 5.96704C104.372 6.47272 104.807 7.14318 105.13 7.9784C105.454 8.81363 105.616 9.84204 105.616 11.0636V11.9159H95.5254V10.1773H103.571C103.571 9.43863 103.423 8.77954 103.128 8.2C102.838 7.62045 102.423 7.16306 101.883 6.82784C101.349 6.49261 100.719 6.325 99.9913 6.325C99.1902 6.325 98.497 6.52386 97.9117 6.92159C97.3322 7.31363 96.8862 7.825 96.5737 8.45568C96.2612 9.08636 96.1049 9.7625 96.1049 10.4841V11.6432C96.1049 12.6318 96.2754 13.4699 96.6163 14.1574C96.9629 14.8392 97.443 15.3591 98.0566 15.717C98.6703 16.0693 99.3833 16.2455 100.196 16.2455C100.724 16.2455 101.202 16.1716 101.628 16.0239C102.059 15.8705 102.432 15.6432 102.744 15.342C103.057 15.0352 103.298 14.6545 103.469 14.2L105.412 14.7455C105.207 15.4045 104.863 15.9841 104.38 16.4841C103.898 16.9784 103.301 17.3648 102.591 17.6432C101.88 17.9159 101.082 18.0523 100.196 18.0523ZM122.079 4.68863V6.39318H115.295V4.68863H122.079ZM117.272 1.55227H119.284V14.0295C119.284 14.5977 119.366 15.0239 119.531 15.3079C119.701 15.5864 119.917 15.7739 120.179 15.8705C120.446 15.9614 120.727 16.0068 121.022 16.0068C121.244 16.0068 121.426 15.9955 121.568 15.9727C121.71 15.9443 121.823 15.9216 121.909 15.9045L122.318 17.7114C122.181 17.7625 121.991 17.8136 121.747 17.8648C121.502 17.9216 121.193 17.95 120.818 17.95C120.25 17.95 119.693 17.8278 119.147 17.5835C118.608 17.3392 118.159 16.967 117.801 16.467C117.448 15.967 117.272 15.3364 117.272 14.575V1.55227ZM130.762 18.0523C129.58 18.0523 128.544 17.771 127.651 17.2085C126.765 16.646 126.072 15.8591 125.572 14.8477C125.078 13.8364 124.83 12.6545 124.83 11.3023C124.83 9.93863 125.078 8.74829 125.572 7.73125C126.072 6.7142 126.765 5.92443 127.651 5.36193C128.544 4.79943 129.58 4.51818 130.762 4.51818C131.944 4.51818 132.978 4.79943 133.865 5.36193C134.757 5.92443 135.45 6.7142 135.944 7.73125C136.444 8.74829 136.694 9.93863 136.694 11.3023C136.694 12.6545 136.444 13.8364 135.944 14.8477C135.45 15.8591 134.757 16.646 133.865 17.2085C132.978 17.771 131.944 18.0523 130.762 18.0523ZM130.762 16.2455C131.66 16.2455 132.399 16.0153 132.978 15.5551C133.558 15.0949 133.987 14.4898 134.265 13.7398C134.544 12.9898 134.683 12.1773 134.683 11.3023C134.683 10.4273 134.544 9.61193 134.265 8.85625C133.987 8.10056 133.558 7.48977 132.978 7.02386C132.399 6.55795 131.66 6.325 130.762 6.325C129.865 6.325 129.126 6.55795 128.546 7.02386C127.967 7.48977 127.538 8.10056 127.259 8.85625C126.981 9.61193 126.842 10.4273 126.842 11.3023C126.842 12.1773 126.981 12.9898 127.259 13.7398C127.538 14.4898 127.967 15.0949 128.546 15.5551C129.126 16.0153 129.865 16.2455 130.762 16.2455Z" fill="#A7A7A7"/>
<path d="M147.355 17.7795V0.324995H150.517V15.129H158.205V17.7795H147.355ZM167.088 18.0352C165.775 18.0352 164.642 17.7625 163.687 17.217C162.738 16.6659 162.008 15.8875 161.497 14.8818C160.986 13.8704 160.73 12.6801 160.73 11.3108C160.73 9.9642 160.986 8.78238 161.497 7.76534C162.014 6.74261 162.736 5.94715 163.662 5.37897C164.588 4.80511 165.676 4.51818 166.926 4.51818C167.733 4.51818 168.494 4.64886 169.21 4.91022C169.932 5.1659 170.568 5.56363 171.119 6.1034C171.676 6.64318 172.113 7.33068 172.432 8.1659C172.75 8.99545 172.909 9.98409 172.909 11.1318V12.0778H162.179V9.99829H169.952C169.946 9.40738 169.818 8.88181 169.568 8.42159C169.318 7.95568 168.969 7.5892 168.52 7.32215C168.077 7.05511 167.559 6.92159 166.969 6.92159C166.338 6.92159 165.784 7.075 165.307 7.38181C164.829 7.68295 164.457 8.08068 164.19 8.575C163.929 9.06363 163.795 9.60056 163.79 10.1858V12.0011C163.79 12.7625 163.929 13.4159 164.207 13.9614C164.486 14.5011 164.875 14.9159 165.375 15.2057C165.875 15.4898 166.46 15.6318 167.131 15.6318C167.579 15.6318 167.986 15.5693 168.349 15.4443C168.713 15.3136 169.028 15.1233 169.295 14.8733C169.562 14.6233 169.764 14.3136 169.9 13.9443L172.781 14.2682C172.599 15.0295 172.253 15.6943 171.741 16.2625C171.236 16.825 170.588 17.2625 169.798 17.575C169.008 17.8818 168.105 18.0352 167.088 18.0352ZM186.346 8.14886L183.533 8.45568C183.454 8.17159 183.314 7.90454 183.115 7.65454C182.922 7.40454 182.661 7.20284 182.331 7.04943C182.002 6.89602 181.598 6.81931 181.121 6.81931C180.479 6.81931 179.939 6.95852 179.502 7.23693C179.07 7.51534 178.857 7.87613 178.863 8.31931C178.857 8.7 178.996 9.00965 179.28 9.24829C179.57 9.48693 180.047 9.68295 180.712 9.83636L182.945 10.3136C184.184 10.5807 185.104 11.004 185.706 11.5835C186.314 12.1631 186.621 12.9216 186.627 13.8591C186.621 14.683 186.38 15.4102 185.902 16.0409C185.431 16.6659 184.775 17.1545 183.934 17.5068C183.093 17.8591 182.127 18.0352 181.036 18.0352C179.434 18.0352 178.144 17.7 177.167 17.0295C176.189 16.3534 175.607 15.4131 175.419 14.2085L178.428 13.9187C178.564 14.5097 178.854 14.9557 179.297 15.2568C179.74 15.558 180.317 15.7085 181.027 15.7085C181.76 15.7085 182.348 15.558 182.792 15.2568C183.24 14.9557 183.465 14.5835 183.465 14.1403C183.465 13.7653 183.32 13.4557 183.03 13.2114C182.746 12.967 182.303 12.7795 181.701 12.6489L179.468 12.1801C178.212 11.9187 177.283 11.4784 176.681 10.8591C176.079 10.2341 175.78 9.44431 175.786 8.48977C175.78 7.68295 175.999 6.98409 176.442 6.39318C176.891 5.79659 177.513 5.33636 178.309 5.0125C179.11 4.68295 180.033 4.51818 181.079 4.51818C182.613 4.51818 183.82 4.84488 184.701 5.49829C185.587 6.1517 186.135 7.03522 186.346 8.14886ZM201.48 5.89886C201.338 5.43863 201.142 5.0267 200.892 4.66306C200.648 4.29375 200.353 3.9784 200.006 3.71704C199.665 3.45568 199.273 3.25965 198.83 3.12897C198.387 2.99261 197.904 2.92443 197.381 2.92443C196.444 2.92443 195.608 3.16022 194.875 3.63181C194.142 4.1034 193.566 4.79659 193.145 5.71136C192.73 6.62045 192.523 7.7284 192.523 9.03522C192.523 10.3534 192.73 11.4699 193.145 12.3847C193.56 13.2994 194.137 13.9955 194.875 14.4727C195.614 14.9443 196.472 15.1801 197.449 15.1801C198.336 15.1801 199.103 15.0097 199.75 14.6687C200.404 14.3278 200.907 13.8449 201.259 13.2199C201.611 12.5892 201.787 11.8506 201.787 11.004L202.503 11.1148H197.765V8.64318H204.847V10.7398C204.847 12.2341 204.529 13.5267 203.892 14.6176C203.256 15.7085 202.381 16.5494 201.267 17.1403C200.154 17.7256 198.875 18.0182 197.432 18.0182C195.824 18.0182 194.412 17.6574 193.196 16.9358C191.986 16.2085 191.04 15.1773 190.358 13.842C189.682 12.5011 189.344 10.9102 189.344 9.06931C189.344 7.66022 189.543 6.4017 189.941 5.29375C190.344 4.18579 190.907 3.24545 191.628 2.47272C192.35 1.69431 193.196 1.1034 194.168 0.699995C195.14 0.290904 196.196 0.0863585 197.338 0.0863585C198.304 0.0863585 199.205 0.228404 200.04 0.512495C200.875 0.790904 201.617 1.18863 202.265 1.70568C202.918 2.22272 203.455 2.83636 203.875 3.54659C204.296 4.25681 204.571 5.0409 204.702 5.89886H201.48ZM213.958 18.0352C212.68 18.0352 211.572 17.754 210.634 17.1915C209.697 16.629 208.97 15.842 208.453 14.8307C207.941 13.8193 207.686 12.6375 207.686 11.2852C207.686 9.93295 207.941 8.74829 208.453 7.73125C208.97 6.7142 209.697 5.92443 210.634 5.36193C211.572 4.79943 212.68 4.51818 213.958 4.51818C215.237 4.51818 216.345 4.79943 217.282 5.36193C218.22 5.92443 218.944 6.7142 219.455 7.73125C219.973 8.74829 220.231 9.93295 220.231 11.2852C220.231 12.6375 219.973 13.8193 219.455 14.8307C218.944 15.842 218.22 16.629 217.282 17.1915C216.345 17.754 215.237 18.0352 213.958 18.0352ZM213.975 15.5636C214.669 15.5636 215.248 15.3733 215.714 14.9926C216.18 14.6062 216.526 14.0892 216.754 13.4415C216.987 12.7937 217.103 12.0722 217.103 11.2767C217.103 10.4756 216.987 9.75113 216.754 9.1034C216.526 8.45 216.18 7.93011 215.714 7.54375C215.248 7.15738 214.669 6.9642 213.975 6.9642C213.265 6.9642 212.674 7.15738 212.203 7.54375C211.737 7.93011 211.387 8.45 211.154 9.1034C210.927 9.75113 210.813 10.4756 210.813 11.2767C210.813 12.0722 210.927 12.7937 211.154 13.4415C211.387 14.0892 211.737 14.6062 212.203 14.9926C212.674 15.3733 213.265 15.5636 213.975 15.5636Z" fill="black"/>
</svg>
